<svg version="1.1" id="Layer_1" xmlns="http://www.w3.org/2000/svg" xmlns:xlink="http://www.w3.org/1999/xlink" x="0px" y="0px" viewBox="0 0 500 500" style="width: 188px;" xml:space="preserve" data-imageid="money-12-80fa8" imageName="Money" class="illustrations_image">
<style type="text/css">
	.st0_money-12-80fa8{fill:#B095FE;}
	.st1_money-12-80fa8{opacity:0.63;fill:url(#SVGID_1_);enable-background:new    ;}
	.st2_money-12-80fa8{opacity:0.63;fill:url(#SVGID_00000068663848910500047980000001461601026655959220_);enable-background:new    ;}
	.st3_money-12-80fa8{opacity:0.63;fill:url(#SVGID_00000165192856021061920600000005932869051809749945_);enable-background:new    ;}
	.st4_money-12-80fa8{opacity:0.63;fill:url(#SVGID_00000121999578260436282110000017658821402789640368_);enable-background:new    ;}
	.st5_money-12-80fa8{fill:#68E1FD;}
	.st6_money-12-80fa8{opacity:0.81;fill:#3099AA;enable-background:new    ;}
	.st7_money-12-80fa8{fill:#2E3192;}
	.st8_money-12-80fa8{opacity:0.54;fill:#3099AA;enable-background:new    ;}
	.st9_money-12-80fa8{opacity:0.5;fill:#FFFFFF;enable-background:new    ;}
	.st10_money-12-80fa8{opacity:0.68;fill:#3099AA;enable-background:new    ;}
	.st11_money-12-80fa8{fill:#FFFFFF;}
	.st12_money-12-80fa8{opacity:0.1;fill:#2E3192;enable-background:new    ;}
	.st13_money-12-80fa8{fill:#FFBE30;}
	.st14_money-12-80fa8{fill:#7C1251;}
	.st15_money-12-80fa8{fill:#F7931E;}
	.st16_money-12-80fa8{fill:#FF7B61;}
	.st17_money-12-80fa8{opacity:0.3;fill:#2E3192;enable-background:new    ;}
	.st18_money-12-80fa8{opacity:0.2;fill:#FFFFFF;enable-background:new    ;}
	.st19_money-12-80fa8{fill:#935542;}
</style>
<g id="background_money-12-80fa8">
	<path class="st0_money-12-80fa8" d="M242.6,404L15,269.5c-7.2-4.1-13.5-10.7-6.4-15.1L237,122.7c3.4-2.1,8.6-3.5,12.1-1.5L488,259.9&#10;&#9;&#9;c7.2,4.2,8.5,16,1.3,20.2L272.5,403.7C263.3,409.1,251.9,409.2,242.6,404z"/>
	
		<linearGradient id="SVGID_1_-money-12-80fa8" gradientUnits="userSpaceOnUse" x1="290.4647" y1="123.7461" x2="251.8247" y2="160.2061" gradientTransform="matrix(1 0 0 -1 0 502)">
		<stop offset="0" style="stop-color:#FFFFFF;stop-opacity:0"/>
		<stop offset="0.99" style="stop-color:#2E3192"/>
	</linearGradient>
	<path class="st1_money-12-80fa8" d="M313.9,363.7c-5.1,1.6-4.6,6.8-9.9,7.9c-3.2,0.6-4.1,8.1-7.4,8.4L274,397.2l-67.4-42l63.1-36.2l54.4,34.9&#10;&#9;&#9;C315.6,360.1,323.8,360.7,313.9,363.7z"/>
	
		<linearGradient id="SVGID_00000062902639944936302520000007731869105781950621_-money-12-80fa8" gradientUnits="userSpaceOnUse" x1="202.7449" y1="198.9731" x2="135.1449" y2="249.0231" gradientTransform="matrix(1 0 0 -1 0 502)">
		<stop offset="0" style="stop-color:#FFFFFF;stop-opacity:0"/>
		<stop offset="0.99" style="stop-color:#2E3192"/>
	</linearGradient>
	<path style="opacity:0.63;fill:url(#SVGID_00000062902639944936302520000007731869105781950621_);enable-background:new    ;" d="&#10;&#9;&#9;M239.1,293.3c-7,2.1-6.3,9.3-13.5,10.8c-4.4,0.9-5.6,11-10.1,11.4L184.6,339l-91.7-57.1l86-49.4l74,47.6&#10;&#9;&#9;C241.4,288.5,252.6,289.2,239.1,293.3z"/>
	
		<linearGradient id="SVGID_00000047778739039316741210000005682744398413063336_-money-12-80fa8" gradientUnits="userSpaceOnUse" x1="404.1009" y1="197.6207" x2="361.1108" y2="247.1507" gradientTransform="matrix(1 0 0 -1 0 502)">
		<stop offset="0" style="stop-color:#FFFFFF;stop-opacity:0"/>
		<stop offset="0.99" style="stop-color:#2E3192"/>
	</linearGradient>
	<path style="opacity:0.63;fill:url(#SVGID_00000047778739039316741210000005682744398413063336_);enable-background:new    ;" d="&#10;&#9;&#9;M468.6,283.2l-72.2-46.4l-89.4,51.3l74.4,46.4C411.2,318.5,439.3,299.8,468.6,283.2z"/>
	
		<linearGradient id="SVGID_00000075844127058107405700000009959397279744754868_-money-12-80fa8" gradientUnits="userSpaceOnUse" x1="296.9899" y1="290.4699" x2="269.5399" y2="319.5699" gradientTransform="matrix(1 0 0 -1 0 502)">
		<stop offset="0" style="stop-color:#FFFFFF;stop-opacity:0"/>
		<stop offset="0.99" style="stop-color:#2E3192"/>
	</linearGradient>
	<path style="opacity:0.63;fill:url(#SVGID_00000075844127058107405700000009959397279744754868_);enable-background:new    ;" d="&#10;&#9;&#9;M288,176.4l-47.2,24.8l48,28h1.2c18.9-10.4,31.6-18.1,45-26.4C317.7,193.5,304,187.6,288,176.4z"/>
</g>
<g id="coins_2_money-12-80fa8">
	<polygon class="st5_money-12-80fa8 targetColor" points="196.7,180.7 50.3,213.3 50.3,256.4 107.5,290.7 196.7,238.4 &#9;" style="fill: rgb(104, 225, 253);"/>
	<polyline class="st6_money-12-80fa8" points="197.2,180.6 106.6,243 50.3,213.3 92.8,190.1 &#9;"/>
	<path class="st5_money-12-80fa8 targetColor" d="M39.7,204.4l54,31.2c16.5-2.6,32.4-8.2,46.9-16.5c24.1-13.8,57.4-39.4,57.4-39.4l-49.6-28.7l-70.2,41.4&#10;&#9;&#9;C78.2,192.4,58.8,201.8,39.7,204.4z" style="fill: rgb(104, 225, 253);"/>
	<path class="st7_money-12-80fa8" d="M94.5,234.1l-0.2-0.1l-50.1-28.9l1.5-0.3c12.7-3,25.1-7.3,36.9-12.8l63.7-37.6l45.9,26.6l-0.7,0.5&#10;&#9;&#9;c-0.3,0.2-30.4,23.3-52,35.7S95,234,94.7,234.1L94.5,234.1z M47.4,205.6l47.3,27.3c2.3-0.5,23.9-5.2,44.3-16.8&#10;&#9;&#9;c19.7-11.3,46.6-31.6,51.2-35.1l-43.8-25.4L83.2,193C71.7,198.3,59.7,202.5,47.4,205.6z"/>
	<polygon class="st8_money-12-80fa8" points="106.6,243 106.6,290.7 196.7,238.4 198,179.6 &#9;"/>
	<polygon class="st8_money-12-80fa8" points="106.6,243 106.6,290.7 196.7,238.4 198,179.6 &#9;"/>
	<path class="st9_money-12-80fa8" d="M111.4,182.8l33.4-20.8l36.5,19.3c0,0-38.1,23.1-41,24.7s-34.6,19-48.5,18.3l-31.8-17.7L111.4,182.8z"/>
	<ellipse class="st8_money-12-80fa8" cx="122.4" cy="197.9" rx="28.8" ry="13.9"/>
	<path class="st10_money-12-80fa8" d="M50.3,222.3c9.5,5.1,18.9,10.2,28.4,15.4c9.4,5.1,18.8,10.3,28.2,15.6h-0.6l22.5-14.7l22.6-14.6l22.6-14.6&#10;&#9;&#9;c7.6-4.8,15.1-9.6,22.7-14.4c-7.4,5-14.9,10-22.3,15L152,224.9l-22.5,14.8L107,254.3l-0.3,0.2l-0.3-0.2&#10;&#9;&#9;c-9.4-5.3-18.7-10.6-28.1-15.9S59.6,227.7,50.3,222.3z"/>
	<path class="st10_money-12-80fa8" d="M50.3,233.6c9.5,5.1,18.9,10.2,28.3,15.4s18.8,10.3,28.2,15.6h-0.6l22.5-14.7l22.6-14.6l22.7-14.5&#10;&#9;&#9;c7.6-4.8,15.1-9.6,22.7-14.4c-7.4,5-14.9,10-22.3,15L152,236.2L129.5,251l-22.5,14.6l-0.3,0.2l-0.3-0.2&#10;&#9;&#9;c-9.4-5.2-18.7-10.5-28.1-15.9C68.9,244.4,59.6,239,50.3,233.6z"/>
	<path class="st10_money-12-80fa8" d="M50.5,242.3c9.5,5.1,18.9,10.2,28.4,15.4c9.4,5.2,18.8,10.4,28.2,15.6h-0.6l22.5-14.7l22.6-14.6l22.6-14.5&#10;&#9;&#9;c7.6-4.8,15.1-9.6,22.7-14.4c-7.4,5-14.9,10-22.3,15l-22.4,14.8l-22.5,14.8l-22.6,14.6l-0.3,0.2l-0.3-0.2&#10;&#9;&#9;c-9.4-5.2-18.7-10.5-28.1-15.9C69.2,253,59.9,247.7,50.5,242.3z"/>
	<path class="st10_money-12-80fa8" d="M50.3,250.8c9.5,5.1,18.9,10.2,28.3,15.4s18.8,10.4,28.2,15.6h-0.6l22.5-14.7l22.6-14.6l22.7-14.5&#10;&#9;&#9;c7.6-4.8,15.1-9.6,22.7-14.4c-7.4,5-14.9,10-22.3,15l-22.4,14.8L129.5,268l-22.5,14.7l-0.3,0.2l-0.3-0.2&#10;&#9;&#9;c-9.4-5.2-18.7-10.5-28.1-15.9S59.6,256.1,50.3,250.8z"/>
	<polygon class="st11_money-12-80fa8" points="84.1,188.8 140.6,219.1 140.6,271.3 161.8,258.7 161.8,205 106.6,175.6 &#9;"/>
	<polygon class="st12_money-12-80fa8" points="140.6,219.1 161.8,205 161.8,258.7 140.6,271.3 &#9;"/>
	<path class="st7_money-12-80fa8" d="M128.5,193.7c1.4,0.1,2.8,0.5,4,1.1c0.9,0.4,1.6,1,2.1,1.8c0.4,0.7,0.4,1.5-0.1,2.2c-0.6,0.9-1.4,1.5-2.4,2&#10;&#9;&#9;l3.7,1.8l-2.1,1.1l-3.9-1.9c-1.8,0.7-3.7,1.1-5.7,1.1c-2.1,0.1-4.2-0.3-6.1-1.1l4-2.1c0.8,0.3,1.7,0.5,2.6,0.5c0.6,0,1.3,0,1.9-0.2&#10;&#9;&#9;l-5.7-2.8c-1.6,0.4-3,0.8-4.2,1c-1.3,0.2-2.5,0.3-3.8,0.1c-1.4-0.1-2.8-0.5-4-1.1c-0.9-0.4-1.7-1-2.2-1.9c-0.3-0.7-0.2-1.5,0.3-2.2&#10;&#9;&#9;c0.5-0.7,1.2-1.3,2-1.8l-3.7-1.8l2.1-1.1l3.8,1.8c1.8-0.7,3.7-1.1,5.6-1.2c2-0.1,4,0.3,5.8,1l-4,2.1c-0.8-0.3-1.5-0.4-2.3-0.4&#10;&#9;&#9;c-0.6,0-1.2,0-1.8,0.2l5.5,2.7l0.2-0.1c1.7-0.4,3.1-0.8,4.3-1C125.9,193.6,127.2,193.6,128.5,193.7z M129.8,198.2&#10;&#9;&#9;c0-0.5-0.4-0.9-1.2-1.3c-0.7-0.4-1.6-0.5-2.4-0.5c-0.8,0-1.6,0.1-2.4,0.3l5.2,2.6C129.5,198.9,129.8,198.6,129.8,198.2&#10;&#9;&#9; M117.2,195.6l-4.9-2.4c-0.3,0.2-0.6,0.5-0.6,0.9c0,0.4,0.3,0.8,1.1,1.2c0.7,0.3,1.5,0.5,2.3,0.5&#10;&#9;&#9;C115.8,195.8,116.6,195.7,117.2,195.6"/>
	<polygon class="st5_money-12-80fa8 targetColor" points="211.3,122 64.9,154.5 64.9,197.7 122.1,232 211.3,179.7 &#9;" style="fill: rgb(104, 225, 253);"/>
	<polyline class="st6_money-12-80fa8" points="211.8,121.9 121.2,184.2 64.9,154.5 107.3,131.4 &#9;"/>
	<path class="st5_money-12-80fa8 targetColor" d="M54.3,145.7l54,31.2c16.5-2.6,32.4-8.2,46.9-16.5c24.2-13.8,57.4-39.4,57.4-39.4L163,92.2l-70.2,41.5&#10;&#9;&#9;C92.8,133.6,73.3,143.1,54.3,145.7z" style="fill: rgb(104, 225, 253);"/>
	<path class="st7_money-12-80fa8" d="M109.1,175.4l-0.2-0.1l-50.1-28.9l1.5-0.3c12.7-3,25.1-7.3,36.9-12.8l63.7-37.6l45.9,26.6l-0.7,0.5&#10;&#9;&#9;c-0.3,0.2-30.4,23.3-52,35.7c-14,7.8-29.1,13.5-44.8,17L109.1,175.4z M62,146.8l47.3,27.4c2.3-0.5,23.9-5.2,44.2-16.8&#10;&#9;&#9;c19.7-11.3,46.6-31.6,51.2-35.1l-43.8-25.4l-63.2,37.3C86.3,139.6,74.3,143.8,62,146.8z"/>
	<polygon class="st8_money-12-80fa8" points="121.2,184.2 121.2,232 211.3,179.7 212.6,120.9 &#9;"/>
	<polygon class="st8_money-12-80fa8" points="121.2,184.2 121.2,232 211.3,179.7 212.6,120.9 &#9;"/>
	<path class="st9_money-12-80fa8" d="M126.1,124.1l33.4-20.8l36.5,19.3c0,0-38.1,23.1-41,24.7s-34.6,19-48.5,18.3L74.7,148L126.1,124.1z"/>
	<ellipse class="st8_money-12-80fa8" cx="137" cy="139.2" rx="28.8" ry="13.9"/>
	<path class="st10_money-12-80fa8" d="M64.9,163.6c9.5,5.1,18.9,10.2,28.3,15.4c9.4,5.2,18.8,10.4,28.2,15.6h-0.6l22.5-14.7l22.6-14.6l22.6-14.5&#10;&#9;&#9;c7.6-4.8,15.1-9.6,22.7-14.4c-7.4,5-14.9,10-22.3,15l-22.4,14.9l-22.5,14.8l-22.6,14.7l-0.3,0.2l-0.3-0.2&#10;&#9;&#9;c-9.4-5.3-18.7-10.6-28.1-15.9S74.2,169,64.9,163.6z"/>
	<path class="st10_money-12-80fa8" d="M64.9,174.9c9.5,5.1,18.9,10.2,28.3,15.4c9.4,5.2,18.8,10.4,28.2,15.6h-0.6l22.5-14.7l22.6-14.6l22.6-14.5&#10;&#9;&#9;c7.6-4.8,15.1-9.6,22.7-14.4c-7.4,5-14.9,10-22.3,15l-22.4,14.9l-22.5,14.8l-22.5,14.6l-0.3,0.2l-0.3-0.2&#10;&#9;&#9;c-9.4-5.3-18.7-10.6-28.1-15.9S74.2,180.3,64.9,174.9z"/>
	<path class="st10_money-12-80fa8" d="M65.2,183.6c9.5,5.1,18.9,10.2,28.3,15.4s18.8,10.4,28.2,15.6h-0.6l22.5-14.7l22.6-14.6l22.6-14.5&#10;&#9;&#9;c7.5-4.8,15.1-9.6,22.7-14.4c-7.4,5-14.9,10-22.3,15l-22.4,14.8l-22.5,14.8l-22.6,14.6l-0.3,0.2l-0.3-0.2&#10;&#9;&#9;c-9.4-5.2-18.7-10.5-28.1-15.9C83.8,194.3,74.5,188.9,65.2,183.6z"/>
	<path class="st10_money-12-80fa8" d="M64.9,192c9.5,5.1,18.9,10.2,28.3,15.4c9.4,5.2,18.8,10.4,28.2,15.6h-0.6l22.5-14.7l22.6-14.6l22.6-14.5&#10;&#9;&#9;c7.6-4.8,15.1-9.6,22.7-14.4c-7.4,5-14.9,10-22.3,15l-22.4,14.9l-22.5,14.8L121.5,224l-0.3,0.2l-0.3-0.2&#10;&#9;&#9;c-9.4-5.2-18.7-10.5-28.1-15.9S74.2,197.4,64.9,192z"/>
	<polygon class="st11_money-12-80fa8" points="98.7,130.1 155.1,160.3 155.1,212.6 176.4,200 176.4,146.3 121.2,116.8 &#9;"/>
	<polygon class="st12_money-12-80fa8" points="155.1,160.3 176.4,146.3 176.4,200 155.1,212.6 &#9;"/>
	<path class="st7_money-12-80fa8" d="M143.1,135c1.4,0.1,2.8,0.5,4,1.1c0.9,0.4,1.6,1,2.1,1.8c0.4,0.7,0.4,1.5-0.1,2.2c-0.6,0.9-1.4,1.5-2.4,2&#10;&#9;&#9;l3.8,1.8l-2.1,1.1l-3.9-1.9c-1.8,0.7-3.7,1.1-5.7,1.1c-2.1,0.1-4.2-0.3-6.1-1.1l3.9-2c0.8,0.3,1.7,0.5,2.6,0.5c0.7,0,1.3,0,1.9-0.2&#10;&#9;&#9;l-5.7-2.8c-1.6,0.4-3,0.8-4.2,1c-1.3,0.2-2.5,0.3-3.8,0.1c-1.4-0.1-2.8-0.5-4-1.1c-0.9-0.4-1.7-1-2.2-1.9c-0.3-0.7-0.2-1.6,0.3-2.2&#10;&#9;&#9;c0.5-0.7,1.2-1.3,2-1.8l-3.7-1.8l2.1-1.1l3.8,1.8c1.8-0.7,3.7-1.1,5.6-1.2c2-0.1,4,0.3,5.8,1l-4,2.1c-0.8-0.3-1.5-0.4-2.3-0.4&#10;&#9;&#9;c-0.6,0-1.2,0-1.7,0.2l5.5,2.7l0.2-0.1c1.7-0.4,3.1-0.8,4.3-1C140.5,135,141.8,134.9,143.1,135z M144.4,139.5&#10;&#9;&#9;c0-0.5-0.4-0.9-1.2-1.3c-0.7-0.4-1.6-0.5-2.4-0.5c-0.8,0-1.6,0.1-2.4,0.3l5.2,2.6C144.1,140.2,144.4,139.9,144.4,139.5&#10;&#9;&#9; M131.8,136.9l-4.9-2.4c-0.3,0.2-0.6,0.5-0.6,0.9c0,0.4,0.3,0.8,1.1,1.2c0.7,0.3,1.5,0.5,2.3,0.5&#10;&#9;&#9;C130.5,137.1,131.2,137,131.8,136.9"/>
	<path class="st11_money-12-80fa8" d="M73.8,154.8c0,0,0.6,9.6-6.8,10.2c0,0,6.3,2.6,7.4,7.7c0,0,0.8-7,7.2-7.8C76.9,163.9,73.6,159.6,73.8,154.8z"/>
</g>
<g id="character_money-12-80fa8">
	<path class="st13_money-12-80fa8" d="M191.4,245.1c-2.8,0.4-22.2,3.4-27,32.3c-9.2,55.6,52.2,100.4,103.8,91.5c8.1-1.4,16.1-5.6,21.4-12.2&#10;&#9;&#9;c4.3-5.4,5.3-12.8,3.9-19.6c-4.4-22.1-25.7-32.8-38-49.7c-6.5-8.9-7.9-20-14.7-28.6C228.8,243.8,209.2,242.4,191.4,245.1z"/>
	<path class="st12_money-12-80fa8" d="M198.5,255.8c-1.9,0.3-14.7,2.2-17.9,21.4c-6.1,36.9,34.6,66.5,68.7,60.6c5.5-0.9,10.6-3.8,14.1-8.1&#10;&#9;&#9;c2.8-3.6,3.5-8.5,2.6-13c-2.9-14.6-17-21.7-25.2-32.9c-4.3-5.9-5.2-13.3-9.7-19C223.3,255,210.3,254,198.5,255.8z"/>
	<polygon class="st14_money-12-80fa8" points="322.7,354.5 314.8,351.3 317.2,338.5 324.6,336.9 &#9;"/>
	<path class="st15_money-12-80fa8" d="M206.3,237.4c0,0-4.2,1.5-4.7,1.5s-7.9-0.1-7.4,4.3s12.1,3.2,12.1,3.2l5.3-5.6"/>
	<path class="st15_money-12-80fa8" d="M191.3,242.7l5.9-2c0,0,7.2-1.6,7.9,0s-1.3,6.7-2,6.9l-5.5,1.2l-5.4,0.6"/>
	<path class="st16_money-12-80fa8" d="M238.2,300.5c0,0,36.8,24.2,40.4,24.5s39.9,14.5,39.9,14.5s-1.8,9.1-0.8,13.4c0,0-66.4-16.7-74.7-19.6&#10;&#9;&#9;s-27.6-21.9-22.6-27S238.2,300.5,238.2,300.5z"/>
	<path class="st17_money-12-80fa8" d="M238.2,300.5c0,0,36.8,24.2,40.4,24.5s39.9,14.5,39.9,14.5s-1.8,9.1-0.8,13.4c0,0-66.4-16.7-74.7-19.6&#10;&#9;&#9;s-27.6-21.9-22.6-27S238.2,300.5,238.2,300.5z"/>
	<path class="st5_money-12-80fa8 targetColor" d="M216.9,262.4c3-2.9,8-15.6,6.8-18.5s-9.3,1.9-9.3,1.9l-8.1-8.4c0,0,11.3-9.3,16.7-10.8s9.6,0.2,11.3,6.7&#10;&#9;&#9;s-3.9,29.3-3.2,34.2s7.1,32.9,7.1,32.9c-5.2,8.9-26.3,13.5-29.3,12.8S191,279,191,279s-28-18.3-24.3-26.8s19.9-10.9,23.2-11.3&#10;&#9;&#9;s5.8,10.3,5.8,10.3s-10.6,3-11.6,4.4c-1,1.4,3.7,4.9,12.5,6.8s10.8,0.9,10.8,0.9" style="fill: rgb(104, 225, 253);"/>
	<path class="st14_money-12-80fa8" d="M322.7,354.5c0,0-0.7-6.1-1.2-8.9s-2.2-18.3,4.8-17.8s2.6,15.6,2.8,17.3s0.9,6.4-0.1,7.9S325,356,322.7,354.5&#10;&#9;&#9;z"/>
	<path class="st14_money-12-80fa8" d="M331.6,342.4c0,0,2.6,1.7,4.3-0.3s2.7-18.9,4-22.3s1.4-9.4-2.7-9.7s-4.7,1.6-5.5,4.3s-4.2,11.1-7.2,12.2&#10;&#9;&#9;c-2.6,0.8-5.2,1.5-7.8,2l0.7,9.9L331.6,342.4z"/>
	<path class="st18_money-12-80fa8" d="M331.6,342.4c0,0,2.6,1.7,4.3-0.3s2.7-18.9,4-22.3s1.4-9.4-2.7-9.7s-4.7,1.6-5.5,4.3s-4.2,11.1-7.2,12.2&#10;&#9;&#9;c-2.6,0.8-5.2,1.5-7.8,2l0.7,9.9L331.6,342.4z"/>
	<path class="st7_money-12-80fa8" d="M213.8,266.9c0,0,7.2,32.7,7.5,33.6s6.9,4.7,6.9,4.7l1.5-5.9l-13.9-33L213.8,266.9z"/>
	<path class="st7_money-12-80fa8" d="M204.3,263.5c0,0,9.4,8.2,9,7.6s2-3.8,2-3.8l4.2,1.3l-4.9-8.5"/>
	<path class="st15_money-12-80fa8" d="M219.3,248.3c0,0,3.6,13.2-2.3,16.1s-10-1.4-11.9-5.4s-1.1-13.2,6.5-14.1&#10;&#9;&#9;C218.3,244.1,219.3,248.3,219.3,248.3z"/>
	<path class="st19_money-12-80fa8" d="M220.4,245.8c0.6-1.6,0.9-4.5-1-5.4c-1.4-0.6-3.1-0.3-4.2,0.8c-0.7-0.5-1.4-0.9-2.3-1.1&#10;&#9;&#9;c-3-0.9-6.3-0.2-8.6,1.9c-0.1,0.1-0.2,0.2-0.4,0.3c-0.2,0.1-0.4,0.1-0.6,0.1c-4.6,0.1-5.6,5.4-4.8,9c0.8,3.8,2.8,7.2,5.6,9.7&#10;&#9;&#9;c1.2,1,2.7,1.8,4.2,2.2c0.2,0.1,0.4,0,0.4-0.2c0,0,0-0.1,0-0.1c0.2-0.1,0.3-0.4,0.1-0.6c-0.4-0.8-0.5-1.7-0.4-2.6&#10;&#9;&#9;c0-0.1,0-0.3-0.1-0.4c0.2-0.2,0.1-0.4,0-0.6c-0.1-0.1-0.2-0.1-0.3-0.1c-1,0.1-2-0.3-2.7-1c-0.4-0.5-0.8-1.4,0.1-1.6&#10;&#9;&#9;c0.3-0.1,0.7,0,0.9,0.2c0.1,0.2,0.3,0.4,0.4,0.6c0.1,0.1,0.1,0.1,0.2,0.1c0.3,0.1,0.7-0.1,0.5-0.5c-0.1-0.3-0.3-0.5-0.5-0.7&#10;&#9;&#9;c-0.6-1-0.4-2.2,0.4-3c1.1-1,2.1-0.4,3.3-0.4c0.8,0.1,1.5-0.4,1.7-1.2c0-0.5-0.1-1.1-0.2-1.6c0-0.8,0.4-1.6,1.2-1.9&#10;&#9;&#9;c1.3-0.5,2.2,0.6,3.1,1.3c0.8,0.6,1.9,0.8,2.9,0.6c1.3-0.3,2-1.7,1.7-2.9c-0.1-0.3-0.2-0.6-0.4-0.8&#10;&#9;&#9;C220.7,245.8,220.6,245.7,220.4,245.8z M212.4,247.6c0.1-0.2,0.4-0.4,0.6-0.5c0.1,0,0.2-0.1,0.2-0.1h0.1l0.1,0.1&#10;&#9;&#9;C213.1,247.2,212.7,247.4,212.4,247.6L212.4,247.6z M219.9,244.9L219.9,244.9c0-0.1,0.1-0.3,0.1-0.4&#10;&#9;&#9;C219.9,244.6,219.9,244.7,219.9,244.9L219.9,244.9z"/>
	<path class="st16_money-12-80fa8" d="M209,313.3c0,0,6.1,19,18.2,22.9s21.9-3.6,27.5-1.9s51.8,7.5,63.9,5.2c0,0,2-13.1-0.8-15.8&#10;&#9;&#9;s-53.3-13-58.3-13.7s-27-4.1-27-4.1"/>
</g>
<g id="money_money-12-80fa8">
	<polygon class="st5_money-12-80fa8 targetColor" points="411.7,189 265.3,221.5 265.3,264.7 322.5,299 411.7,246.7 &#9;" style="fill: rgb(104, 225, 253);"/>
	<polyline class="st6_money-12-80fa8" points="412.2,188.9 321.6,251.2 265.3,221.5 307.8,198.4 &#9;"/>
	<path class="st5_money-12-80fa8 targetColor" d="M254.7,212.7l54,31.2c16.5-2.6,32.4-8.2,46.9-16.5c24.1-13.8,57.4-39.4,57.4-39.4l-49.6-28.7l-70.2,41.4&#10;&#9;&#9;C293.2,200.6,273.8,210.1,254.7,212.7z" style="fill: rgb(104, 225, 253);"/>
	<path class="st7_money-12-80fa8" d="M309.6,242.4l-0.2-0.1l-50.1-28.9l1.5-0.3c12.7-3,25.1-7.3,36.9-12.8l63.7-37.6l45.9,26.6l-0.7,0.5&#10;&#9;&#9;c-0.3,0.2-30.4,23.4-52,35.7s-44.6,16.9-44.8,17L309.6,242.4z M262.4,213.8l47.3,27.3c15.5-3.5,30.4-9.1,44.2-16.8&#10;&#9;&#9;c19.7-11.3,46.6-31.6,51.2-35.1l-43.8-25.4l-63.1,37.3C286.7,206.6,274.7,210.8,262.4,213.8z"/>
	<polygon class="st8_money-12-80fa8" points="321.6,251.2 321.6,299 411.7,246.7 413,187.9 &#9;"/>
	<polygon class="st8_money-12-80fa8" points="321.6,251.2 321.6,299 411.7,246.7 413,187.9 &#9;"/>
	<path class="st9_money-12-80fa8" d="M326.5,191.1l33.4-20.8l36.5,19.3c0,0-38.1,23.1-41,24.7s-34.6,19-48.5,18.3L275.1,215L326.5,191.1z"/>
	<ellipse class="st8_money-12-80fa8" cx="337.4" cy="206.2" rx="28.8" ry="13.9"/>
	<path class="st10_money-12-80fa8" d="M265.3,230.6c9.5,5.1,18.9,10.2,28.4,15.4c9.4,5.2,18.8,10.4,28.2,15.6h-0.6l22.5-14.7l22.6-14.6l22.6-14.5&#10;&#9;&#9;c7.6-4.8,15.1-9.6,22.7-14.4c-7.4,5-14.9,10-22.3,15L367,233.1l-22.5,14.8L322,262.5l-0.3,0.2l-0.3-0.2&#10;&#9;&#9;c-9.4-5.2-18.7-10.5-28.1-15.9C284,241.3,274.7,236,265.3,230.6z"/>
	<path class="st10_money-12-80fa8" d="M265.3,241.9c9.5,5.1,18.9,10.2,28.4,15.4c9.4,5.2,18.8,10.4,28.2,15.6h-0.6l22.5-14.7l22.6-14.6L389,229&#10;&#9;&#9;c7.6-4.8,15.1-9.6,22.7-14.4c-7.4,5-14.9,10-22.3,15L367,244.5l-22.5,14.7L322,273.9l-0.3,0.2l-0.3-0.2&#10;&#9;&#9;c-9.4-5.3-18.8-10.6-28.1-15.9C284,252.7,274.7,247.3,265.3,241.9z"/>
	<path class="st10_money-12-80fa8" d="M265.6,250.6c9.5,5.1,18.9,10.2,28.4,15.4s18.8,10.4,28.2,15.6h-0.6l22.5-14.7l22.6-14.6l22.6-14.5&#10;&#9;&#9;c7.6-4.8,15.1-9.6,22.7-14.4c-7.4,5-14.9,10-22.3,15l-22.4,14.9l-22.5,14.7l-22.5,14.7l-0.3,0.2l-0.3-0.2&#10;&#9;&#9;c-9.4-5.3-18.7-10.6-28.1-15.9C284.2,261.3,274.9,255.9,265.6,250.6z"/>
	<path class="st10_money-12-80fa8" d="M265.3,259c9.5,5.1,18.9,10.2,28.4,15.4s18.8,10.4,28.2,15.6h-0.6l22.5-14.7l22.6-14.6l22.6-14.5&#10;&#9;&#9;c7.6-4.8,15.1-9.6,22.7-14.4c-7.4,5-14.9,10-22.3,15L367,261.6l-22.5,14.8L322,291l-0.3,0.2l-0.3-0.2c-9.4-5.2-18.7-10.5-28.1-15.9&#10;&#9;&#9;S274.7,264.4,265.3,259z"/>
	<polygon class="st11_money-12-80fa8" points="299.2,197.1 355.6,227.3 355.6,279.6 376.8,267 376.8,213.3 321.6,183.8 &#9;"/>
	<polygon class="st12_money-12-80fa8" points="355.6,227.3 376.8,213.3 376.8,267 355.6,279.6 &#9;"/>
	<path class="st7_money-12-80fa8" d="M343.5,202c1.4,0.1,2.8,0.5,4,1.1c0.9,0.4,1.6,1,2.1,1.8c0.4,0.7,0.3,1.5-0.1,2.2c-0.6,0.9-1.4,1.5-2.4,2&#10;&#9;&#9;l3.7,1.8l-2.1,1.1l-3.9-1.9c-1.8,0.7-3.7,1.1-5.7,1.1c-2.1,0.1-4.2-0.3-6.1-1.1l4-2.1c0.8,0.3,1.7,0.5,2.6,0.5c0.6,0,1.3,0,1.9-0.2&#10;&#9;&#9;l-5.7-2.8c-1.6,0.4-3,0.8-4.2,1c-1.3,0.2-2.5,0.3-3.8,0.2c-1.4-0.1-2.7-0.5-4-1.1c-0.9-0.4-1.7-1-2.1-1.9c-0.3-0.7-0.2-1.6,0.3-2.2&#10;&#9;&#9;c0.5-0.7,1.2-1.3,2-1.7l-3.7-1.8l2-1.1l3.8,1.9c1.8-0.7,3.7-1.1,5.6-1.2c2-0.1,4,0.3,5.8,1l-4,2.1c-0.8-0.3-1.5-0.4-2.3-0.4&#10;&#9;&#9;c-0.6,0-1.2,0-1.7,0.2l5.5,2.7l0.2-0.1c1.7-0.4,3.1-0.8,4.3-1C341,201.9,342.3,201.9,343.5,202z M344.8,206.5&#10;&#9;&#9;c0-0.5-0.4-0.9-1.2-1.3c-0.7-0.4-1.6-0.5-2.4-0.5c-0.8,0-1.6,0.1-2.4,0.3l5.2,2.6C344.6,207.2,344.8,206.8,344.8,206.5&#10;&#9;&#9; M332.3,203.9l-4.9-2.4c-0.3,0.2-0.6,0.5-0.6,0.9c0,0.4,0.3,0.8,1.1,1.2c0.7,0.4,1.5,0.5,2.3,0.5&#10;&#9;&#9;C330.9,204.1,331.6,204,332.3,203.9"/>
	<path class="st11_money-12-80fa8" d="M394.9,185.6c0,0,0.6,9.6-6.9,10.2c0,0,6.3,2.6,7.4,7.7c0,0,0.8-7,7.2-7.8C398,194.7,394.7,190.4,394.9,185.6&#10;&#9;&#9;z"/>
</g>
<g id="coins_1_money-12-80fa8">
	<ellipse class="st15_money-12-80fa8" cx="259.8" cy="187.6" rx="29.8" ry="17.5"/>
	<polygon class="st15_money-12-80fa8" points="229.9,187.6 229.9,182.5 233.2,186.5 &#9;"/>
	<polygon class="st15_money-12-80fa8" points="289.6,182.5 289.6,187.6 285.8,187.6 288.6,183.5 &#9;"/>
	<ellipse class="st13_money-12-80fa8" cx="259.8" cy="182.5" rx="29.8" ry="17.5"/>
	<path class="st15_money-12-80fa8" d="M274.9,180.2c0.2,0.4,0.3,0.9,0.2,1.3L275,182h-5.4c0-0.2,0.1-0.3,0.1-0.5c0-0.4-0.1-0.7-0.3-1&#10;&#9;&#9;c-0.3-0.5-0.8-1-1.3-1.2c-0.8-0.4-1.7-0.6-2.6-0.7c-0.8-0.1-1.7,0-2.5,0.3c-0.8,0.3-1.1,0.8-0.9,1.3c0.3,0.6,0.7,1.2,1.2,1.7&#10;&#9;&#9;c0.6,0.6,1.1,1.2,1.6,1.9c0.5,0.6,0.6,1.4,0.3,2.1c-0.6,1-1.5,1.7-2.6,2.1c-1.8,0.8-3.8,1.2-5.8,1.2c-2.1,0.1-4.3-0.2-6.3-0.9&#10;&#9;&#9;l-3.1,1.4l-3.6-1.7l3.1-1.3c-0.5-0.4-1-0.8-1.5-1.3c-0.3-0.4-0.6-0.8-0.7-1.2c-0.1-0.3-0.2-0.7-0.2-1c0-0.2,0-0.5,0-0.7l0.1-0.3&#10;&#9;&#9;h5.5c-0.1,0.2-0.1,0.4-0.1,0.6c0,0.4,0.2,0.9,0.4,1.2c0.4,0.7,1.1,1.2,1.8,1.5c1,0.5,2.1,0.8,3.2,0.8c1,0.1,2-0.1,2.9-0.5&#10;&#9;&#9;c0.8-0.3,1-0.8,0.9-1.3c-0.3-0.7-0.7-1.2-1.2-1.7c-0.6-0.6-1.2-1.2-1.7-1.9c-0.5-0.6-0.6-1.4-0.2-2.1c0.7-1,1.6-1.7,2.8-2.1&#10;&#9;&#9;c1.8-0.7,3.6-1.1,5.5-1.1c2-0.1,4,0.2,5.9,0.9l3.1-1.3l3.4,1.9l-3.1,1.4C274.1,179,274.6,179.5,274.9,180.2z"/>
	<path class="st15_money-12-80fa8" d="M259.8,198.6c-14.4,0-26.2-7.1-26.2-15.8s11.8-15.8,26.2-15.8S286,174,286,182.7S274.2,198.6,259.8,198.6z&#10;&#9;&#9; M259.8,169.2c-13.2,0-23.9,6.1-23.9,13.5s10.7,13.5,23.9,13.5c13.2,0,23.9-6.1,23.9-13.5S273,169.2,259.8,169.2z"/>
	<ellipse class="st15_money-12-80fa8" cx="259.8" cy="181.2" rx="29.8" ry="17.5"/>
	<polygon class="st15_money-12-80fa8" points="229.9,181.2 229.9,176.1 233.2,180.2 &#9;"/>
	<polygon class="st15_money-12-80fa8" points="289.6,176.1 289.6,181.2 285.8,181.2 288.6,177.1 &#9;"/>
	<ellipse class="st13_money-12-80fa8" cx="259.8" cy="176.1" rx="29.8" ry="17.5"/>
	<path class="st15_money-12-80fa8" d="M274.9,173.8c0.2,0.4,0.3,0.9,0.2,1.3l-0.1,0.5h-5.4c0-0.2,0.1-0.3,0.1-0.5c0-0.4-0.1-0.7-0.3-1&#10;&#9;&#9;c-0.3-0.5-0.8-0.9-1.3-1.1c-0.8-0.4-1.7-0.6-2.6-0.7c-0.8-0.1-1.7,0.1-2.4,0.4c-0.8,0.3-1.1,0.8-0.9,1.3c0.2,0.6,0.6,1.2,1.2,1.7&#10;&#9;&#9;c0.6,0.6,1.1,1.2,1.6,1.9c0.5,0.6,0.6,1.4,0.3,2.1c-0.6,1-1.5,1.7-2.6,2.1c-1.8,0.8-3.8,1.2-5.8,1.2c-2.1,0.1-4.3-0.2-6.3-0.9&#10;&#9;&#9;l-3.1,1.3l-3.7-1.8l3.1-1.3c-0.5-0.4-1-0.8-1.5-1.3c-0.3-0.4-0.6-0.8-0.7-1.2c-0.1-0.3-0.2-0.7-0.2-1c0-0.2,0-0.5,0-0.7l0.1-0.3&#10;&#9;&#9;h5.5c-0.1,0.2-0.1,0.4-0.1,0.6c0,0.4,0.2,0.9,0.4,1.2c0.4,0.7,1.1,1.2,1.8,1.5c1,0.5,2.1,0.8,3.2,0.8c1,0.1,2-0.1,2.9-0.5&#10;&#9;&#9;c0.8-0.3,1-0.8,0.9-1.3c-0.3-0.7-0.7-1.2-1.2-1.7c-0.6-0.6-1.2-1.2-1.7-1.9c-0.5-0.6-0.6-1.4-0.2-2.1c0.6-1,1.6-1.7,2.8-2.1&#10;&#9;&#9;c1.8-0.7,3.6-1.1,5.5-1.1c2-0.1,4,0.2,5.9,0.9l3.1-1.3l3.4,1.9l-3.1,1.3C274.1,172.6,274.6,173.1,274.9,173.8z"/>
	<path class="st15_money-12-80fa8" d="M259.8,192.2c-14.4,0-26.2-7.1-26.2-15.8s11.8-15.8,26.2-15.8s26.2,7.1,26.2,15.8S274.2,192.2,259.8,192.2z&#10;&#9;&#9; M259.8,162.8c-13.2,0-23.9,6.1-23.9,13.5s10.7,13.5,23.9,13.5c13.2,0,23.9-6.1,23.9-13.5S273,162.8,259.8,162.8L259.8,162.8z"/>
	<ellipse class="st15_money-12-80fa8" cx="259.8" cy="175.1" rx="29.8" ry="17.5"/>
	<polygon class="st15_money-12-80fa8" points="229.9,175.1 229.9,170.1 233.2,174.1 &#9;"/>
	<polygon class="st15_money-12-80fa8" points="289.6,170.1 289.6,175.1 285.8,175.1 288.6,171.1 &#9;"/>
	<ellipse class="st13_money-12-80fa8" cx="259.8" cy="170.1" rx="29.8" ry="17.5"/>
	<path class="st15_money-12-80fa8" d="M274.9,167.8c0.2,0.4,0.3,0.9,0.2,1.3l-0.1,0.5l-5.4,0.1c0-0.2,0.1-0.3,0.1-0.5c0-0.4-0.1-0.7-0.3-1&#10;&#9;&#9;c-0.3-0.5-0.8-0.9-1.3-1.2c-0.8-0.4-1.7-0.6-2.6-0.7c-0.8-0.1-1.7,0.1-2.4,0.4c-0.8,0.3-1.1,0.8-0.9,1.3c0.2,0.6,0.6,1.2,1.2,1.7&#10;&#9;&#9;c0.6,0.6,1.1,1.2,1.6,1.9c0.5,0.6,0.6,1.4,0.3,2.1c-0.6,1-1.5,1.7-2.6,2.1c-1.8,0.8-3.8,1.2-5.8,1.2c-2.1,0.1-4.3-0.2-6.3-0.9&#10;&#9;&#9;l-3.1,1.3l-3.7-1.8l3.1-1.3c-0.5-0.4-1-0.8-1.5-1.3c-0.5-0.6-0.9-1.4-0.9-2.2c0-0.2,0-0.5,0-0.7l0.1-0.3h5.5&#10;&#9;&#9;c-0.1,0.2-0.1,0.4-0.1,0.6c0,0.4,0.2,0.9,0.4,1.2c0.4,0.7,1.1,1.2,1.8,1.5c1,0.5,2.1,0.8,3.2,0.8c1,0.1,2-0.1,2.9-0.5&#10;&#9;&#9;c0.8-0.3,1-0.8,0.9-1.3c-0.3-0.7-0.7-1.2-1.2-1.7c-0.6-0.6-1.2-1.2-1.7-1.9c-0.5-0.6-0.6-1.4-0.2-2.1c0.6-1,1.6-1.7,2.8-2.1&#10;&#9;&#9;c1.8-0.7,3.6-1.1,5.5-1.1c2-0.1,4,0.2,5.9,0.9l3.1-1.3l3.4,1.9l-3.1,1.3C274.1,166.5,274.6,167.1,274.9,167.8z"/>
	<path class="st15_money-12-80fa8" d="M259.8,186.1c-14.4,0-26.2-7.1-26.2-15.8s11.8-15.8,26.2-15.8s26.2,7.1,26.2,15.8S274.2,186.1,259.8,186.1z&#10;&#9;&#9; M259.8,156.8c-13.2,0-23.9,6.1-23.9,13.5s10.7,13.5,23.9,13.5c13.2,0,23.9-6.1,23.9-13.5S273,156.8,259.8,156.8z"/>
	<ellipse class="st15_money-12-80fa8" cx="259.8" cy="169" rx="29.8" ry="17.5"/>
	<polygon class="st15_money-12-80fa8" points="229.9,169 229.9,163.9 233.2,168 &#9;"/>
	<polygon class="st15_money-12-80fa8" points="289.6,163.9 289.6,169 285.8,169 288.6,164.9 &#9;"/>
	<ellipse class="st13_money-12-80fa8" cx="259.8" cy="163.9" rx="29.8" ry="17.5"/>
	<path class="st15_money-12-80fa8" d="M274.9,161.6c0.2,0.4,0.3,0.9,0.2,1.3l-0.1,0.5h-5.4c0-0.2,0.1-0.3,0.1-0.5c0-0.4-0.1-0.7-0.3-1&#10;&#9;&#9;c-0.3-0.5-0.8-0.9-1.3-1.2c-0.8-0.4-1.7-0.6-2.6-0.7c-0.8-0.1-1.7,0.1-2.4,0.4c-0.8,0.3-1.1,0.8-0.9,1.3c0.3,0.7,0.6,1.2,1.2,1.7&#10;&#9;&#9;c0.6,0.6,1.1,1.2,1.6,1.9c0.5,0.6,0.6,1.4,0.3,2.1c-0.6,1-1.5,1.7-2.6,2.1c-1.8,0.8-3.8,1.2-5.8,1.2c-2.1,0.1-4.3-0.2-6.3-0.9&#10;&#9;&#9;l-3.1,1.4l-3.7-1.8l3.1-1.3c-0.5-0.4-1-0.8-1.5-1.3c-0.3-0.4-0.6-0.8-0.7-1.2c-0.1-0.3-0.2-0.7-0.2-1c0-0.2,0-0.5,0-0.7l0.1-0.3&#10;&#9;&#9;h5.5c-0.1,0.2-0.1,0.4-0.1,0.6c0,0.4,0.2,0.9,0.4,1.2c0.4,0.7,1.1,1.2,1.8,1.5c1,0.5,2.1,0.8,3.2,0.8c1,0.1,2-0.1,2.9-0.5&#10;&#9;&#9;c0.8-0.3,1-0.8,0.9-1.3c-0.3-0.7-0.7-1.2-1.2-1.7c-0.6-0.6-1.2-1.2-1.7-1.9c-0.5-0.6-0.6-1.4-0.2-2.1c0.7-1,1.6-1.7,2.8-2.1&#10;&#9;&#9;c1.8-0.7,3.6-1.1,5.5-1.1c2-0.1,4,0.2,5.9,0.9l3.1-1.3l3.4,1.9l-3.1,1.4C274.1,160.3,274.6,160.9,274.9,161.6z"/>
	<path class="st15_money-12-80fa8" d="M259.8,180c-14.4,0-26.2-7.1-26.2-15.8s11.8-15.8,26.2-15.8s26.2,7.1,26.2,15.8S274.2,180,259.8,180z&#10;&#9;&#9; M259.8,150.7c-13.2,0-23.9,6.1-23.9,13.5s10.7,13.5,23.9,13.5c13.2,0,23.9-6.1,23.9-13.5S273,150.6,259.8,150.7L259.8,150.7z"/>
	<ellipse class="st15_money-12-80fa8" cx="259.5" cy="161.4" rx="29.8" ry="17.5"/>
	<polygon class="st15_money-12-80fa8" points="229.7,161.4 229.7,156.4 232.9,160.4 &#9;"/>
	<polygon class="st15_money-12-80fa8" points="289.4,156.4 289.4,161.4 285.6,161.4 288.3,157.4 &#9;"/>
	<ellipse class="st13_money-12-80fa8" cx="259.5" cy="156.4" rx="29.8" ry="17.5"/>
	<path class="st15_money-12-80fa8" d="M274.6,154c0.2,0.4,0.3,0.9,0.2,1.3l-0.1,0.5h-5.5c0.1-0.1,0.1-0.3,0.1-0.5c0-0.4-0.1-0.7-0.3-1&#10;&#9;&#9;c-0.3-0.5-0.8-1-1.3-1.2c-0.8-0.4-1.7-0.6-2.6-0.7c-0.8-0.1-1.7,0.1-2.4,0.4c-0.8,0.3-1,0.8-0.9,1.3c0.3,0.6,0.7,1.2,1.2,1.7&#10;&#9;&#9;c0.6,0.6,1.1,1.2,1.6,1.9c0.5,0.6,0.6,1.4,0.3,2.1c-0.6,1-1.5,1.7-2.6,2.1c-1.8,0.8-3.8,1.2-5.8,1.2c-2.1,0.1-4.3-0.2-6.3-0.9&#10;&#9;&#9;l-3.1,1.4l-3.7-1.8l3-1.3c-0.5-0.4-1-0.8-1.5-1.3c-0.3-0.4-0.6-0.8-0.7-1.2c-0.1-0.3-0.2-0.7-0.2-1c0-0.2,0-0.5,0.1-0.7l0.1-0.3&#10;&#9;&#9;h5.4c0,0.1-0.1,0.3-0.1,0.6c0,0.4,0.2,0.9,0.4,1.2c0.4,0.7,1.1,1.2,1.8,1.5c1,0.5,2.1,0.8,3.2,0.8c1,0.1,2-0.1,2.9-0.5&#10;&#9;&#9;c0.8-0.3,1-0.8,0.9-1.3c-0.3-0.7-0.7-1.2-1.2-1.7c-0.6-0.6-1.2-1.2-1.7-1.9c-0.5-0.6-0.6-1.4-0.2-2.1c0.6-1,1.6-1.7,2.8-2.1&#10;&#9;&#9;c1.8-0.7,3.6-1.1,5.5-1.1c2-0.1,4,0.2,5.9,0.9l3.1-1.3l3.4,1.9l-3.1,1.4C273.9,152.7,274.4,153.3,274.6,154z"/>
	<path class="st15_money-12-80fa8" d="M259.6,172.4c-14.4,0-26.2-7.1-26.2-15.8s11.8-15.8,26.2-15.8c14.5,0,26.2,7.1,26.2,15.8&#10;&#9;&#9;S274,172.4,259.6,172.4z M259.6,143.1c-13.2,0-23.9,6.1-23.9,13.5s10.7,13.5,23.9,13.5s23.9-6.1,23.9-13.5S272.7,143.1,259.6,143.1&#10;&#9;&#9;z"/>
	<ellipse class="st15_money-12-80fa8" cx="259.5" cy="155" rx="29.8" ry="17.5"/>
	<polygon class="st15_money-12-80fa8" points="229.7,155 229.7,150 232.9,154 &#9;"/>
	<polygon class="st15_money-12-80fa8" points="289.4,150 289.4,155 285.6,155 288.3,151 &#9;"/>
	<ellipse class="st13_money-12-80fa8" cx="259.5" cy="150" rx="29.8" ry="17.5"/>
	<path class="st15_money-12-80fa8" d="M274.6,147.6c0.2,0.4,0.3,0.9,0.2,1.3l-0.1,0.5h-5.5c0.2-0.5,0.1-1-0.2-1.4c-0.3-0.5-0.8-1-1.3-1.2&#10;&#9;&#9;c-0.8-0.4-1.7-0.6-2.6-0.7c-0.8-0.1-1.7,0.1-2.4,0.4c-0.8,0.3-1,0.8-0.9,1.3c0.3,0.6,0.7,1.2,1.2,1.7c0.6,0.6,1.1,1.2,1.6,1.9&#10;&#9;&#9;c0.5,0.6,0.6,1.4,0.3,2.1c-0.6,1-1.5,1.7-2.6,2.1c-1.8,0.8-3.8,1.2-5.8,1.2c-2.1,0.1-4.3-0.2-6.3-0.9l-3.1,1.4l-3.7-1.8l3-1.3&#10;&#9;&#9;c-0.5-0.4-1-0.8-1.5-1.3c-0.3-0.4-0.6-0.8-0.7-1.2c-0.1-0.3-0.2-0.7-0.2-1c0-0.2,0-0.5,0.1-0.7l0.1-0.3h5.4c0,0.1-0.1,0.3-0.1,0.6&#10;&#9;&#9;c0,0.4,0.2,0.9,0.4,1.2c0.4,0.7,1.1,1.2,1.8,1.5c1,0.5,2.1,0.8,3.2,0.8c1,0.1,2-0.1,2.9-0.5c0.8-0.3,1-0.8,0.9-1.3&#10;&#9;&#9;c-0.3-0.7-0.7-1.2-1.2-1.7c-0.6-0.6-1.2-1.2-1.7-1.9c-0.5-0.6-0.6-1.4-0.2-2.1c0.6-1,1.6-1.7,2.8-2.1c1.8-0.7,3.6-1.1,5.5-1.1&#10;&#9;&#9;c2-0.1,4,0.2,5.9,0.9l3.1-1.3l3.4,1.9l-3.1,1.4C273.9,146.4,274.4,147,274.6,147.6z"/>
	<path class="st15_money-12-80fa8" d="M259.6,166c-14.4,0-26.2-7.1-26.2-15.8s11.8-15.8,26.2-15.8c14.5,0,26.2,7.1,26.2,15.8S274,166,259.6,166z&#10;&#9;&#9; M259.6,136.7c-13.2,0-23.9,6.1-23.9,13.5s10.7,13.5,23.9,13.5s23.9-6.1,23.9-13.5S272.7,136.7,259.6,136.7L259.6,136.7z"/>
	<ellipse class="st15_money-12-80fa8" cx="260" cy="149" rx="29.8" ry="17.5"/>
	<polygon class="st15_money-12-80fa8" points="230.1,149 230.1,143.9 233.4,148 &#9;"/>
	<polygon class="st15_money-12-80fa8" points="289.8,143.9 289.8,149 286,149 288.8,144.9 &#9;"/>
	<ellipse class="st13_money-12-80fa8" cx="260" cy="143.9" rx="29.8" ry="17.5"/>
	<path class="st15_money-12-80fa8" d="M275.1,141.6c0.2,0.4,0.3,0.9,0.2,1.3l-0.1,0.5h-5.4c0.2-0.5,0.1-1-0.2-1.4c-0.3-0.5-0.8-1-1.3-1.2&#10;&#9;&#9;c-0.8-0.4-1.7-0.6-2.6-0.7c-0.8-0.1-1.7,0.1-2.4,0.4c-0.8,0.3-1.1,0.8-0.9,1.3c0.3,0.6,0.7,1.2,1.2,1.7c0.6,0.6,1.1,1.2,1.6,1.9&#10;&#9;&#9;c0.5,0.6,0.6,1.4,0.3,2.1c-0.6,1-1.5,1.7-2.6,2.1c-1.8,0.8-3.8,1.2-5.8,1.2c-2.1,0.1-4.3-0.2-6.3-0.9l-3.1,1.4l-3.6-1.8l3.1-1.3&#10;&#9;&#9;c-0.5-0.4-1-0.8-1.5-1.3c-0.3-0.4-0.6-0.8-0.7-1.2c-0.1-0.3-0.2-0.7-0.2-1c0-0.2,0-0.5,0.1-0.7l0.1-0.3h5.4&#10;&#9;&#9;c-0.1,0.2-0.1,0.4-0.1,0.6c0,0.4,0.2,0.9,0.4,1.2c0.4,0.7,1.1,1.2,1.8,1.5c1,0.5,2.1,0.8,3.2,0.8c1,0.1,2-0.1,2.9-0.5&#10;&#9;&#9;c0.8-0.3,1-0.8,0.9-1.3c-0.3-0.7-0.7-1.2-1.2-1.7c-0.6-0.6-1.2-1.2-1.7-1.9c-0.5-0.6-0.6-1.4-0.2-2.1c0.7-1,1.6-1.7,2.8-2.1&#10;&#9;&#9;c1.8-0.7,3.6-1.1,5.5-1.1c2-0.1,4,0.2,5.9,0.9l3.1-1.3l3.4,1.9l-3.1,1.4C274.4,140.4,274.8,140.9,275.1,141.6z"/>
	<path class="st15_money-12-80fa8" d="M260,160c-14.4,0-26.2-7.1-26.2-15.8s11.8-15.8,26.2-15.8c14.5,0,26.2,7.1,26.2,15.8S274.5,160,260,160z&#10;&#9;&#9; M260,130.6c-13.2,0-23.9,6.1-23.9,13.5s10.7,13.5,23.9,13.5s23.9-6.1,23.9-13.5S273.2,130.6,260,130.6L260,130.6z"/>
	<ellipse class="st15_money-12-80fa8" cx="269" cy="141.4" rx="29.8" ry="17.5"/>
	<polygon class="st15_money-12-80fa8" points="239.1,141.4 239.1,136.4 242.4,140.4 &#9;"/>
	<polygon class="st15_money-12-80fa8" points="298.8,136.4 298.8,141.4 295,141.4 297.8,137.4 &#9;"/>
	<ellipse class="st13_money-12-80fa8" cx="269" cy="136.4" rx="29.8" ry="17.5"/>
	<path class="st15_money-12-80fa8" d="M284.1,134c0.2,0.4,0.3,0.9,0.2,1.3l-0.1,0.5h-5.4c0-0.2,0.1-0.3,0.1-0.5c0-0.4-0.1-0.7-0.3-1&#10;&#9;&#9;c-0.3-0.5-0.8-0.9-1.3-1.2c-0.8-0.4-1.7-0.6-2.6-0.7c-0.8-0.1-1.7,0.1-2.4,0.4c-0.8,0.3-1.1,0.8-0.9,1.3c0.3,0.7,0.6,1.2,1.2,1.7&#10;&#9;&#9;c0.6,0.6,1.1,1.2,1.6,1.9c0.5,0.6,0.6,1.4,0.3,2.1c-0.6,1-1.5,1.7-2.6,2.1c-1.8,0.8-3.8,1.2-5.8,1.2c-2.1,0.1-4.3-0.2-6.3-0.9&#10;&#9;&#9;l-3.1,1.4l-3.7-1.8l3.1-1.3c-0.5-0.4-1-0.8-1.5-1.3c-0.3-0.4-0.6-0.8-0.7-1.2c-0.1-0.3-0.2-0.7-0.2-1c0-0.2,0-0.5,0-0.7l0.1-0.3&#10;&#9;&#9;h5.5c-0.1,0.2-0.1,0.4-0.1,0.6c0,0.4,0.2,0.9,0.4,1.2c0.4,0.7,1.1,1.2,1.8,1.5c1,0.5,2.1,0.8,3.2,0.8c1,0.1,2-0.1,2.9-0.5&#10;&#9;&#9;c0.8-0.3,1-0.8,0.9-1.3c-0.3-0.6-0.7-1.2-1.2-1.7c-0.6-0.6-1.2-1.2-1.7-1.9c-0.5-0.6-0.6-1.4-0.2-2.1c0.6-1,1.6-1.8,2.8-2.1&#10;&#9;&#9;c1.8-0.7,3.6-1.1,5.5-1.1c2-0.1,4,0.2,5.9,0.9l3.1-1.3l3.4,1.9l-3.1,1.4C283.3,132.8,283.8,133.3,284.1,134z"/>
	<path class="st15_money-12-80fa8" d="M269,152.4c-14.4,0-26.2-7.1-26.2-15.8s11.8-15.8,26.2-15.8s26.2,7.1,26.2,15.8S283.5,152.4,269,152.4z&#10;&#9;&#9; M269,123.1c-13.2,0-23.9,6.1-23.9,13.5s10.7,13.5,23.9,13.5c13.2,0,23.9-6.1,23.9-13.5S282.2,123.1,269,123.1z"/>
	<path class="st11_money-12-80fa8" d="M289.4,137.5c0,0,0.6,9.6-6.9,10.2c0,0,6.3,2.6,7.4,7.7c0,0,0.8-7,7.2-7.8&#10;&#9;&#9;C292.4,146.6,289.2,142.3,289.4,137.5z"/>
</g>
</svg>